<svg xmlns="http://www.w3.org/2000/svg" xmlns:xlink="http://www.w3.org/1999/xlink" width="1920" zoomAndPan="magnify" viewBox="0 0 1440 809.999993" height="1080" preserveAspectRatio="xMidYMid meet" version="1.0"><defs><g/></defs><rect x="-144" width="1728" fill="#ffffff" y="-80.999999" height="971.999992" fill-opacity="1"/><rect x="-144" width="1728" fill="#212529" y="-80.999999" height="971.999992" fill-opacity="1"/><g fill="#ffffff" fill-opacity="1"><g transform="translate(807.419617, 507.606165)"><g/></g></g><g fill="#ffffff" fill-opacity="1"><g transform="translate(12.832507, 625.114442)"><g><path d="M 120.734375 -43.125 C 120.734375 -32.34375 118.753906 -24.03125 114.796875 -18.1875 C 110.847656 -12.351562 105.640625 -8.085938 99.171875 -5.390625 C 92.703125 -2.691406 85.335938 -1.117188 77.078125 -0.671875 C 68.816406 -0.222656 60.375 0 51.75 0 L 17.25 0 L 17.25 -465.703125 L 51.75 -465.703125 C 62.53125 -465.703125 72.1875 -465.472656 80.71875 -465.015625 C 89.25 -464.566406 96.476562 -462.992188 102.40625 -460.296875 C 108.332031 -457.609375 112.867188 -453.34375 116.015625 -447.5 C 119.160156 -441.664062 120.734375 -433.359375 120.734375 -422.578125 L 120.734375 -275.96875 C 120.734375 -267.34375 118.578125 -260.691406 114.265625 -256.015625 C 109.953125 -251.347656 103.484375 -247.847656 94.859375 -245.515625 C 103.484375 -243.535156 109.953125 -240.207031 114.265625 -235.53125 C 118.578125 -230.863281 120.734375 -224.21875 120.734375 -215.59375 Z M 51.75 -258.71875 L 77.609375 -258.71875 C 79.765625 -258.71875 81.425781 -259.210938 82.59375 -260.203125 C 83.769531 -261.191406 84.625 -262.492188 85.15625 -264.109375 C 85.695312 -265.722656 86.007812 -267.5625 86.09375 -269.625 C 86.1875 -271.695312 86.234375 -273.8125 86.234375 -275.96875 L 86.234375 -422.578125 C 86.234375 -426.890625 85.648438 -430.210938 84.484375 -432.546875 C 83.316406 -434.878906 81.382812 -436.582031 78.6875 -437.65625 C 76 -438.738281 72.453125 -439.367188 68.046875 -439.546875 C 63.648438 -439.734375 58.21875 -439.828125 51.75 -439.828125 Z M 86.234375 -215.59375 C 86.234375 -217.75 86.1875 -219.859375 86.09375 -221.921875 C 86.007812 -223.992188 85.695312 -225.835938 85.15625 -227.453125 C 84.625 -229.078125 83.769531 -230.378906 82.59375 -231.359375 C 81.425781 -232.347656 79.765625 -232.84375 77.609375 -232.84375 L 51.75 -232.84375 L 51.75 -25.875 C 58.21875 -25.875 63.648438 -25.960938 68.046875 -26.140625 C 72.453125 -26.316406 76 -26.941406 78.6875 -28.015625 C 81.382812 -29.097656 83.316406 -30.804688 84.484375 -33.140625 C 85.648438 -35.484375 86.234375 -38.8125 86.234375 -43.125 Z M 86.234375 -215.59375 "/></g></g><g transform="translate(150.815619, 625.114442)"><g><path d="M 56.0625 -465.703125 L 56.0625 0 L 21.5625 0 L 21.5625 -465.703125 Z M 56.0625 -465.703125 "/></g></g><g transform="translate(228.43112, 625.114442)"><g><path d="M 120.734375 0 L 86.234375 0 L 43.125 -344.96875 L 43.125 0 L 17.25 0 L 17.25 -465.703125 L 51.75 -465.703125 L 94.859375 -120.734375 L 94.859375 -465.703125 L 120.734375 -465.703125 Z M 120.734375 0 "/></g></g><g transform="translate(366.414232, 625.114442)"><g><path d="M 51.75 -344.96875 L 60.375 -224.21875 L 69 -344.96875 L 77.609375 -465.703125 L 112.109375 -465.703125 L 77.609375 -163.859375 L 77.609375 0 L 43.125 0 L 43.125 -163.859375 L 8.625 -465.703125 L 43.125 -465.703125 Z M 51.75 -344.96875 "/></g></g><g transform="translate(487.149456, 625.114442)"><g><path d="M 120.734375 -43.125 C 120.734375 -40.96875 120.460938 -37.054688 119.921875 -31.390625 C 119.390625 -25.734375 117.503906 -19.941406 114.265625 -14.015625 C 111.035156 -8.085938 105.914062 -2.832031 98.90625 1.75 C 91.894531 6.332031 81.925781 8.625 69 8.625 C 56.0625 8.625 46.085938 6.332031 39.078125 1.75 C 32.066406 -2.832031 26.941406 -8.085938 23.703125 -14.015625 C 20.472656 -19.941406 18.585938 -25.734375 18.046875 -31.390625 C 17.515625 -37.054688 17.25 -40.96875 17.25 -43.125 L 17.25 -422.578125 C 17.25 -424.015625 17.335938 -426.171875 17.515625 -429.046875 C 17.691406 -431.921875 18.226562 -435.109375 19.125 -438.609375 C 20.03125 -442.117188 21.5625 -445.710938 23.71875 -449.390625 C 25.875 -453.078125 28.835938 -456.445312 32.609375 -459.5 C 36.378906 -462.550781 41.226562 -465.019531 47.15625 -466.90625 C 53.09375 -468.789062 60.375 -469.734375 69 -469.734375 C 77.613281 -469.734375 84.882812 -468.789062 90.8125 -466.90625 C 96.75 -465.019531 101.601562 -462.550781 105.375 -459.5 C 109.144531 -456.445312 112.109375 -453.078125 114.265625 -449.390625 C 116.421875 -445.710938 117.945312 -442.117188 118.84375 -438.609375 C 119.75 -435.109375 120.289062 -431.921875 120.46875 -429.046875 C 120.644531 -426.171875 120.734375 -424.015625 120.734375 -422.578125 Z M 51.75 -43.125 C 51.75 -40.96875 51.835938 -38.40625 52.015625 -35.4375 C 52.191406 -32.476562 52.816406 -29.648438 53.890625 -26.953125 C 54.972656 -24.253906 56.679688 -21.960938 59.015625 -20.078125 C 61.359375 -18.191406 64.6875 -17.25 69 -17.25 C 73.300781 -17.25 76.617188 -18.191406 78.953125 -20.078125 C 81.296875 -21.960938 83.003906 -24.253906 84.078125 -26.953125 C 85.160156 -29.648438 85.789062 -32.476562 85.96875 -35.4375 C 86.144531 -38.40625 86.234375 -40.96875 86.234375 -43.125 L 86.234375 -422.578125 C 86.234375 -424.734375 86.144531 -427.066406 85.96875 -429.578125 C 85.789062 -432.097656 85.160156 -434.390625 84.078125 -436.453125 C 83.003906 -438.523438 81.296875 -440.28125 78.953125 -441.71875 C 76.617188 -443.15625 73.300781 -443.875 69 -443.875 C 64.6875 -443.875 61.359375 -443.15625 59.015625 -441.71875 C 56.679688 -440.28125 54.972656 -438.523438 53.890625 -436.453125 C 52.816406 -434.390625 52.191406 -432.097656 52.015625 -429.578125 C 51.835938 -427.066406 51.75 -424.734375 51.75 -422.578125 Z M 51.75 -43.125 "/></g></g><g transform="translate(625.132568, 625.114442)"><g><path d="M 51.75 -43.125 C 51.75 -40.96875 51.835938 -38.40625 52.015625 -35.4375 C 52.191406 -32.476562 52.816406 -29.648438 53.890625 -26.953125 C 54.972656 -24.253906 56.679688 -21.960938 59.015625 -20.078125 C 61.359375 -18.191406 64.6875 -17.25 69 -17.25 C 73.300781 -17.25 76.617188 -18.191406 78.953125 -20.078125 C 81.296875 -21.960938 83.003906 -24.253906 84.078125 -26.953125 C 85.160156 -29.648438 85.789062 -32.476562 85.96875 -35.4375 C 86.144531 -38.40625 86.234375 -40.96875 86.234375 -43.125 L 86.234375 -465.703125 L 120.734375 -465.703125 L 120.734375 -43.125 C 120.734375 -40.96875 120.460938 -37.054688 119.921875 -31.390625 C 119.390625 -25.734375 117.503906 -19.941406 114.265625 -14.015625 C 111.035156 -8.085938 105.914062 -2.832031 98.90625 1.75 C 91.894531 6.332031 81.925781 8.625 69 8.625 C 56.0625 8.625 46.085938 6.332031 39.078125 1.75 C 32.066406 -2.832031 26.941406 -8.085938 23.703125 -14.015625 C 20.472656 -19.941406 18.585938 -25.734375 18.046875 -31.390625 C 17.515625 -37.054688 17.25 -40.96875 17.25 -43.125 L 17.25 -465.703125 L 51.75 -465.703125 Z M 51.75 -43.125 "/></g></g><g transform="translate(763.115681, 625.114442)"><g><path d="M 77.609375 -113.453125 C 77.609375 -132.503906 76.617188 -148.851562 74.640625 -162.5 C 72.671875 -176.15625 70.066406 -188.054688 66.828125 -198.203125 C 63.597656 -208.359375 59.914062 -217.207031 55.78125 -224.75 C 51.65625 -232.300781 47.4375 -239.398438 43.125 -246.046875 C 38.8125 -252.703125 34.585938 -259.351562 30.453125 -266 C 26.316406 -272.644531 22.628906 -280.1875 19.390625 -288.625 C 16.160156 -297.070312 13.554688 -306.820312 11.578125 -317.875 C 9.609375 -328.925781 8.625 -342.175781 8.625 -357.625 L 8.625 -422.578125 C 8.625 -426.890625 9.296875 -431.785156 10.640625 -437.265625 C 11.992188 -442.742188 14.554688 -447.863281 18.328125 -452.625 C 22.097656 -457.382812 27.351562 -461.425781 34.09375 -464.75 C 40.832031 -468.070312 49.59375 -469.734375 60.375 -469.734375 C 71.144531 -469.734375 79.898438 -468.070312 86.640625 -464.75 C 93.378906 -461.425781 98.632812 -457.382812 102.40625 -452.625 C 106.175781 -447.863281 108.734375 -442.742188 110.078125 -437.265625 C 111.429688 -431.785156 112.109375 -426.890625 112.109375 -422.578125 L 112.109375 -301.84375 L 77.609375 -301.84375 L 77.609375 -422.578125 C 77.609375 -426.890625 77.113281 -430.4375 76.125 -433.21875 C 75.144531 -436.007812 73.84375 -438.164062 72.21875 -439.6875 C 70.601562 -441.21875 68.765625 -442.296875 66.703125 -442.921875 C 64.640625 -443.554688 62.53125 -443.875 60.375 -443.875 C 58.21875 -443.875 56.101562 -443.554688 54.03125 -442.921875 C 51.96875 -442.296875 50.125 -441.21875 48.5 -439.6875 C 46.882812 -438.164062 45.582031 -436.007812 44.59375 -433.21875 C 43.613281 -430.4375 43.125 -426.890625 43.125 -422.578125 L 43.125 -370.03125 C 43.125 -349.726562 44.828125 -332.75 48.234375 -319.09375 C 51.648438 -305.4375 55.914062 -293.53125 61.03125 -283.375 C 66.15625 -273.226562 71.679688 -264.019531 77.609375 -255.75 C 83.546875 -247.488281 89.070312 -238.550781 94.1875 -228.9375 C 99.3125 -219.320312 103.578125 -208.179688 106.984375 -195.515625 C 110.398438 -182.847656 112.109375 -167.082031 112.109375 -148.21875 L 112.109375 -43.125 C 112.109375 -40.96875 111.835938 -37.054688 111.296875 -31.390625 C 110.765625 -25.734375 108.878906 -19.941406 105.640625 -14.015625 C 102.410156 -8.085938 97.289062 -2.832031 90.28125 1.75 C 83.269531 6.332031 73.300781 8.625 60.375 8.625 C 47.4375 8.625 37.460938 6.332031 30.453125 1.75 C 23.441406 -2.832031 18.316406 -8.085938 15.078125 -14.015625 C 11.847656 -19.941406 9.960938 -25.734375 9.421875 -31.390625 C 8.890625 -37.054688 8.625 -40.96875 8.625 -43.125 L 8.625 -198.359375 L 43.125 -198.359375 L 43.125 -43.125 C 43.125 -40.96875 43.210938 -38.40625 43.390625 -35.4375 C 43.566406 -32.476562 44.191406 -29.648438 45.265625 -26.953125 C 46.347656 -24.253906 48.054688 -21.960938 50.390625 -20.078125 C 52.734375 -18.191406 56.0625 -17.25 60.375 -17.25 C 64.6875 -17.25 68.007812 -18.191406 70.34375 -20.078125 C 72.675781 -21.960938 74.378906 -24.253906 75.453125 -26.953125 C 76.535156 -29.648438 77.164062 -32.476562 77.34375 -35.4375 C 77.519531 -38.40625 77.609375 -40.96875 77.609375 -43.125 Z M 77.609375 -113.453125 "/></g></g><g transform="translate(883.850904, 625.114442)"><g><path d="M 112.109375 0 L 77.609375 0 L 73.296875 -112.109375 L 47.703125 -112.109375 L 43.125 0 L 8.625 0 L 34.5 -465.703125 L 86.234375 -465.703125 Z M 69 -241.46875 L 60.375 -448.453125 L 51.75 -241.46875 L 47.703125 -137.984375 L 73.296875 -137.984375 Z M 69 -241.46875 "/></g></g><g transform="translate(1004.586127, 625.114442)"><g><path d="M 94.859375 -439.828125 L 51.75 -439.828125 L 51.75 -267.34375 L 86.234375 -267.34375 L 86.234375 -241.46875 L 51.75 -241.46875 L 51.75 0 L 17.25 0 L 17.25 -465.703125 L 94.859375 -465.703125 Z M 94.859375 -439.828125 "/></g></g><g transform="translate(1108.073462, 625.114442)"><g><path d="M 51.75 -43.125 L 51.75 0 L 8.625 0 L 8.625 -43.125 Z M 51.75 -43.125 "/></g></g><g transform="translate(1168.441073, 625.114442)"><g><path d="M 120.734375 -267.34375 C 120.734375 -256.5625 118.753906 -248.25 114.796875 -242.40625 C 110.847656 -236.570312 105.640625 -232.304688 99.171875 -229.609375 C 92.703125 -226.921875 85.335938 -225.347656 77.078125 -224.890625 C 68.816406 -224.441406 60.375 -224.21875 51.75 -224.21875 L 51.75 0 L 17.25 0 L 17.25 -465.703125 L 51.75 -465.703125 C 68.988281 -465.703125 82.28125 -464.265625 91.625 -461.390625 C 100.96875 -458.515625 107.796875 -454.921875 112.109375 -450.609375 C 116.421875 -446.296875 118.9375 -441.625 119.65625 -436.59375 C 120.375 -431.5625 120.734375 -426.890625 120.734375 -422.578125 Z M 86.234375 -422.578125 C 86.234375 -426.890625 85.648438 -430.210938 84.484375 -432.546875 C 83.316406 -434.878906 81.382812 -436.582031 78.6875 -437.65625 C 76 -438.738281 72.453125 -439.367188 68.046875 -439.546875 C 63.648438 -439.734375 58.21875 -439.828125 51.75 -439.828125 L 51.75 -250.09375 C 56.0625 -250.09375 60.28125 -250.179688 64.40625 -250.359375 C 68.539062 -250.546875 72.222656 -251.175781 75.453125 -252.25 C 78.691406 -253.332031 81.296875 -255.039062 83.265625 -257.375 C 85.242188 -259.707031 86.234375 -263.03125 86.234375 -267.34375 Z M 86.234375 -422.578125 "/></g></g><g transform="translate(1297.800241, 625.114442)"><g><path d="M 120.734375 0 L 86.234375 0 L 51.75 -232.84375 L 51.75 0 L 17.25 0 L 17.25 -465.703125 L 51.75 -465.703125 L 51.75 -250.09375 L 86.234375 -465.703125 L 120.734375 -465.703125 L 86.234375 -267.34375 L 82.46875 -241.46875 L 86.234375 -215.59375 Z M 120.734375 0 "/></g></g></g></svg>